<?xml version="1.0" standalone="no"?>
<!DOCTYPE svg PUBLIC "-//W3C//DTD SVG 20010904//EN"
 "http://www.w3.org/TR/2001/REC-SVG-20010904/DTD/svg10.dtd">
<svg version="1.0" xmlns="http://www.w3.org/2000/svg"
 width="400.000000pt" height="400.000000pt" viewBox="0 0 400.000000 400.000000"
 preserveAspectRatio="xMidYMid meet">
<metadata>
Created by potrace 1.11, written by Peter Selinger 2001-2013
</metadata>
<g transform="translate(0.000000,400.000000) scale(0.100000,-0.100000)"
fill="#000000" stroke="none">
<path d="M1045 3564 c-75 -39 -135 -131 -135 -208 0 -46 3 -52 42 -85 106 -92
108 -95 108 -152 0 -30 -12 -101 -26 -159 -64 -263 -88 -398 -180 -985 -79
-507 -85 -615 -44 -765 20 -75 29 -91 74 -136 78 -79 126 -88 297 -53 81 17
130 34 221 80 156 78 248 115 465 188 419 141 817 341 1111 561 114 85 289
255 364 354 159 211 202 414 130 622 -42 123 -114 268 -172 345 -85 112 -291
244 -474 304 -208 67 -499 101 -788 91 -104 -3 -272 -9 -375 -12 -141 -5 -224
-2 -330 10 -179 20 -250 20 -288 0z m1165 -304 c366 -25 576 -79 749 -194 157
-105 232 -254 219 -437 -5 -60 -14 -86 -62 -182 -67 -134 -187 -298 -282 -387
-127 -118 -310 -205 -779 -368 -531 -184 -665 -225 -786 -238 -54 -6 -56 -6
-67 22 -43 104 -40 284 8 616 14 91 119 655 174 928 l41 205 40 2 c22 2 119
10 215 18 308 27 338 28 530 15z"/>
<path d="M2346 2989 c-106 -13 -274 -69 -371 -124 -146 -83 -208 -166 -208
-275 0 -124 71 -189 297 -269 86 -31 148 -59 164 -74 l25 -25 -21 -29 c-44
-62 -231 -149 -387 -179 -83 -17 -91 -17 -179 1 -86 16 -94 17 -117 1 -14 -8
-35 -33 -47 -54 -19 -35 -20 -40 -6 -60 9 -13 42 -30 85 -43 64 -19 77 -20
152 -10 206 30 447 125 572 227 90 75 120 123 120 194 0 51 -4 63 -30 90 -36
39 -94 69 -200 105 -191 66 -245 105 -245 181 0 61 128 145 273 179 74 18 216
20 252 3 19 -9 25 -19 25 -44 0 -18 -4 -44 -9 -57 -9 -24 -9 -24 41 -16 57 9
87 32 125 97 74 125 -69 208 -311 181z"/>
<path d="M340 750 l0 -70 1665 0 1665 0 0 70 0 70 -1665 0 -1665 0 0 -70z"/>
<path d="M340 500 l0 -70 1665 0 1665 0 0 70 0 70 -1665 0 -1665 0 0 -70z"/>
</g>
</svg>
